<mxfile host="app.diagrams.net" agent="Mozilla/5.0 (X11; Linux x86_64) AppleWebKit/537.36 (KHTML, like Gecko) Chrome/132.0.0.0 Safari/537.36" version="26.0.9">
  <diagram name="PÃ¡gina-1" id="EPhd2kAbuk6ORTkARqkX">
    <mxGraphModel dx="1194" dy="756" grid="1" gridSize="10" guides="1" tooltips="1" connect="1" arrows="1" fold="1" page="1" pageScale="1" pageWidth="827" pageHeight="1169" math="0" shadow="0">
      <root>
        <mxCell id="0" />
        <mxCell id="1" parent="0" />
        <mxCell id="qdE0PNb4crZhBkA3GiRH-8" style="edgeStyle=orthogonalEdgeStyle;rounded=0;orthogonalLoop=1;jettySize=auto;html=1;exitX=0.25;exitY=1;exitDx=0;exitDy=0;entryX=0.25;entryY=0;entryDx=0;entryDy=0;" edge="1" parent="1" source="qdE0PNb4crZhBkA3GiRH-1" target="qdE0PNb4crZhBkA3GiRH-3">
          <mxGeometry relative="1" as="geometry" />
        </mxCell>
        <mxCell id="qdE0PNb4crZhBkA3GiRH-10" style="edgeStyle=orthogonalEdgeStyle;rounded=0;orthogonalLoop=1;jettySize=auto;html=1;exitX=0.75;exitY=0;exitDx=0;exitDy=0;entryX=0.75;entryY=1;entryDx=0;entryDy=0;" edge="1" parent="1" source="qdE0PNb4crZhBkA3GiRH-1" target="qdE0PNb4crZhBkA3GiRH-2">
          <mxGeometry relative="1" as="geometry" />
        </mxCell>
        <mxCell id="qdE0PNb4crZhBkA3GiRH-1" value="CU" style="rounded=0;whiteSpace=wrap;html=1;" vertex="1" parent="1">
          <mxGeometry x="250" y="280" width="120" height="60" as="geometry" />
        </mxCell>
        <mxCell id="qdE0PNb4crZhBkA3GiRH-9" style="edgeStyle=orthogonalEdgeStyle;rounded=0;orthogonalLoop=1;jettySize=auto;html=1;exitX=0.25;exitY=1;exitDx=0;exitDy=0;entryX=0.25;entryY=0;entryDx=0;entryDy=0;" edge="1" parent="1" source="qdE0PNb4crZhBkA3GiRH-2" target="qdE0PNb4crZhBkA3GiRH-1">
          <mxGeometry relative="1" as="geometry" />
        </mxCell>
        <mxCell id="qdE0PNb4crZhBkA3GiRH-2" value="Core" style="rounded=0;whiteSpace=wrap;html=1;" vertex="1" parent="1">
          <mxGeometry x="250" y="170" width="120" height="60" as="geometry" />
        </mxCell>
        <mxCell id="qdE0PNb4crZhBkA3GiRH-6" style="edgeStyle=orthogonalEdgeStyle;rounded=0;orthogonalLoop=1;jettySize=auto;html=1;exitX=0.25;exitY=1;exitDx=0;exitDy=0;entryX=0.25;entryY=0;entryDx=0;entryDy=0;" edge="1" parent="1" source="qdE0PNb4crZhBkA3GiRH-3" target="qdE0PNb4crZhBkA3GiRH-4">
          <mxGeometry relative="1" as="geometry" />
        </mxCell>
        <mxCell id="qdE0PNb4crZhBkA3GiRH-11" style="edgeStyle=orthogonalEdgeStyle;rounded=0;orthogonalLoop=1;jettySize=auto;html=1;exitX=0.75;exitY=0;exitDx=0;exitDy=0;entryX=0.75;entryY=1;entryDx=0;entryDy=0;" edge="1" parent="1" source="qdE0PNb4crZhBkA3GiRH-3" target="qdE0PNb4crZhBkA3GiRH-1">
          <mxGeometry relative="1" as="geometry" />
        </mxCell>
        <mxCell id="qdE0PNb4crZhBkA3GiRH-3" value="DU" style="rounded=0;whiteSpace=wrap;html=1;" vertex="1" parent="1">
          <mxGeometry x="250" y="370" width="120" height="60" as="geometry" />
        </mxCell>
        <mxCell id="qdE0PNb4crZhBkA3GiRH-7" style="edgeStyle=orthogonalEdgeStyle;rounded=0;orthogonalLoop=1;jettySize=auto;html=1;exitX=0.75;exitY=0;exitDx=0;exitDy=0;entryX=0.75;entryY=1;entryDx=0;entryDy=0;" edge="1" parent="1" source="qdE0PNb4crZhBkA3GiRH-4" target="qdE0PNb4crZhBkA3GiRH-3">
          <mxGeometry relative="1" as="geometry" />
        </mxCell>
        <mxCell id="qdE0PNb4crZhBkA3GiRH-4" value="RU" style="rounded=0;whiteSpace=wrap;html=1;" vertex="1" parent="1">
          <mxGeometry x="250" y="480" width="120" height="60" as="geometry" />
        </mxCell>
        <mxCell id="qdE0PNb4crZhBkA3GiRH-14" style="edgeStyle=orthogonalEdgeStyle;rounded=0;orthogonalLoop=1;jettySize=auto;html=1;exitX=0.75;exitY=0;exitDx=0;exitDy=0;entryX=0.75;entryY=1;entryDx=0;entryDy=0;" edge="1" parent="1" source="qdE0PNb4crZhBkA3GiRH-12" target="qdE0PNb4crZhBkA3GiRH-4">
          <mxGeometry relative="1" as="geometry" />
        </mxCell>
        <mxCell id="qdE0PNb4crZhBkA3GiRH-12" value="UE" style="rounded=0;whiteSpace=wrap;html=1;" vertex="1" parent="1">
          <mxGeometry x="250" y="585" width="120" height="60" as="geometry" />
        </mxCell>
      </root>
    </mxGraphModel>
  </diagram>
</mxfile>
